<svg width="32" height="32" viewBox="0 0 32 32" fill="none" xmlns="http://www.w3.org/2000/svg">
<g filter="url(#filter0_i_40_26761)">
<rect width="32" height="32" rx="6" fill="#526691"/>
</g>
<path d="M6.48266 21.12C5.82932 21.12 5.36932 20.9733 5.10266 20.68C4.84932 20.3733 4.72266 19.9933 4.72266 19.54C4.72266 19.06 4.80932 18.5467 4.98266 18C5.16932 17.44 5.37599 16.9267 5.60266 16.46C5.84266 15.98 6.02932 15.6133 6.16266 15.36C6.70932 14.3467 7.33599 13.6067 8.04266 13.14C8.76266 12.6733 9.55599 12.44 10.4227 12.44C10.7293 12.44 11.0893 12.4533 11.5027 12.48C11.916 12.5067 12.336 12.52 12.7627 12.52C12.976 12.52 13.1827 12.5133 13.3827 12.5C13.5827 12.4867 13.776 12.48 13.9627 12.48H14.0427C14.2693 12.48 14.3827 12.52 14.3827 12.6C14.3827 12.6533 14.3027 12.7133 14.1427 12.78C13.9693 12.8467 13.7627 13.0733 13.5227 13.46C13.2827 13.8333 13.036 14.2867 12.7827 14.82C12.5293 15.3533 12.2893 15.8933 12.0627 16.44C11.9427 16.7467 11.7827 17.16 11.5827 17.68C11.3827 18.1867 11.236 18.7067 11.1427 19.24C11.1293 19.3333 11.116 19.42 11.1027 19.5C11.1027 19.5667 11.1027 19.6333 11.1027 19.7C11.1027 20.0333 11.1893 20.2 11.3627 20.2C11.576 20.2 11.796 20.0867 12.0227 19.86C12.2493 19.6333 12.4693 19.36 12.6827 19.04C12.8693 18.76 13.056 18.4467 13.2427 18.1C13.4293 17.7533 13.596 17.4333 13.7427 17.14C13.8893 16.8333 13.996 16.62 14.0627 16.5C14.1027 16.42 14.156 16.38 14.2227 16.38C14.3027 16.38 14.376 16.44 14.4427 16.56C14.5093 16.6667 14.516 16.7733 14.4627 16.88C14.2093 17.3733 13.936 17.9 13.6427 18.46C13.3493 19.02 13.0293 19.5267 12.6827 19.98C12.096 20.74 11.416 21.12 10.6427 21.12C10.056 21.12 9.62266 20.94 9.34266 20.58C9.07599 20.22 8.94266 19.7867 8.94266 19.28C8.94266 19.0533 8.96266 18.8333 9.00266 18.62C8.85599 18.86 8.67599 19.1733 8.46266 19.56C8.24932 19.9333 8.00266 20.2733 7.72266 20.58C7.45599 20.8867 7.15599 21.06 6.82266 21.1C6.76932 21.1 6.71599 21.1 6.66266 21.1C6.60932 21.1133 6.54932 21.12 6.48266 21.12ZM7.22266 20.1C7.35599 20.1 7.52932 19.98 7.74266 19.74C7.96932 19.5 8.19599 19.2 8.42266 18.84C8.66266 18.4667 8.86932 18.0933 9.04266 17.72C9.08266 17.6133 9.17599 17.3867 9.32266 17.04C9.48266 16.68 9.65599 16.2667 9.84266 15.8C10.0427 15.32 10.2427 14.84 10.4427 14.36C10.6427 13.88 10.816 13.46 10.9627 13.1C10.976 13.06 10.9827 13.0133 10.9827 12.96C10.9827 12.88 10.9427 12.84 10.8627 12.84C10.7827 12.84 10.6893 12.8733 10.5827 12.94C10.476 12.9933 10.376 13.0533 10.2827 13.12C10.1093 13.2533 9.88266 13.5333 9.60266 13.96C9.33599 14.3733 9.04932 14.86 8.74266 15.42C8.44932 15.98 8.16932 16.5533 7.90266 17.14C7.63599 17.7133 7.41599 18.24 7.24266 18.72C7.08266 19.1867 7.00266 19.54 7.00266 19.78C7.00266 19.9933 7.07599 20.1 7.22266 20.1ZM16.1397 21.32C15.4064 21.32 14.7797 21.1267 14.2597 20.74C13.7397 20.34 13.4797 19.74 13.4797 18.94C13.4797 18.3267 13.5997 17.6667 13.8397 16.96C14.093 16.2533 14.4197 15.58 14.8197 14.94C15.233 14.2867 15.6864 13.7467 16.1797 13.32C16.4864 13.0533 16.8197 12.8333 17.1797 12.66C17.5397 12.4867 17.8997 12.3933 18.2597 12.38C18.873 12.34 19.413 12.4133 19.8797 12.6C20.3464 12.7867 20.5797 13.1533 20.5797 13.7C20.5797 13.8333 20.5597 13.9867 20.5197 14.16C20.493 14.32 20.433 14.5 20.3397 14.7C20.2064 14.9933 20.033 15.28 19.8197 15.56C19.6197 15.84 19.4464 16.0333 19.2997 16.14C19.153 16.2467 19.0064 16.3267 18.8597 16.38C18.713 16.42 18.5797 16.44 18.4597 16.44C18.3264 16.44 18.2064 16.42 18.0997 16.38C18.0064 16.34 17.9264 16.2933 17.8597 16.24C18.033 15.96 18.2064 15.6467 18.3797 15.3C18.553 14.9533 18.7064 14.6333 18.8397 14.34C18.973 14.0333 19.053 13.8 19.0797 13.64C19.093 13.5867 19.0997 13.54 19.0997 13.5C19.113 13.46 19.1197 13.42 19.1197 13.38C19.1197 13.1133 19.0197 12.98 18.8197 12.98C18.6597 12.98 18.4864 13.0933 18.2997 13.32C17.9664 13.6933 17.6464 14.16 17.3397 14.72C17.033 15.28 16.7464 15.88 16.4797 16.52C16.413 16.6933 16.3197 16.9333 16.1997 17.24C16.093 17.5467 15.993 17.88 15.8997 18.24C15.8197 18.5867 15.7797 18.92 15.7797 19.24C15.7797 19.6 15.8597 19.9067 16.0197 20.16C16.193 20.4 16.4997 20.52 16.9397 20.52C17.3664 20.52 17.7597 20.4 18.1197 20.16C18.493 19.9067 18.8397 19.5867 19.1597 19.2C19.4797 18.8 19.7664 18.38 20.0197 17.94C20.273 17.4867 20.4997 17.06 20.6997 16.66C20.7397 16.5667 20.8064 16.52 20.8997 16.52C20.9797 16.52 21.053 16.56 21.1197 16.64C21.1864 16.72 21.193 16.8133 21.1397 16.92C20.953 17.2933 20.7464 17.6733 20.5197 18.06C20.3064 18.4467 20.073 18.8267 19.8197 19.2C19.393 19.84 18.873 20.3533 18.2597 20.74C17.6464 21.1267 16.9397 21.32 16.1397 21.32ZM21.9384 21.28C21.4851 21.28 21.0584 21.22 20.6584 21.1C20.2718 20.98 19.9584 20.7867 19.7184 20.52C19.4784 20.2533 19.3584 19.9 19.3584 19.46C19.3584 18.8867 19.5251 18.3733 19.8584 17.92C20.2051 17.4667 20.6251 17.1467 21.1184 16.96C21.2384 16.9067 21.3451 16.88 21.4384 16.88C21.5718 16.88 21.6384 16.9333 21.6384 17.04C21.6384 17.1333 21.6118 17.2133 21.5584 17.28C21.4518 17.44 21.3251 17.66 21.1784 17.94C21.0318 18.22 20.8984 18.5133 20.7784 18.82C20.6718 19.1267 20.6184 19.4067 20.6184 19.66C20.6184 19.86 20.6651 20.0267 20.7584 20.16C20.8651 20.2933 21.0451 20.36 21.2984 20.36C21.5918 20.36 21.8918 20.2533 22.1984 20.04C22.5184 19.8133 22.8318 19.5333 23.1384 19.2C23.4451 18.8533 23.7184 18.48 23.9584 18.08C24.1984 17.68 24.3918 17.3 24.5384 16.94C24.6851 16.5667 24.7584 16.2533 24.7584 16C24.7584 15.6933 24.6718 15.4867 24.4984 15.38C24.3384 15.26 24.1384 15.2 23.8984 15.2C23.6451 15.2 23.3718 15.2467 23.0784 15.34C22.7984 15.42 22.5651 15.5067 22.3784 15.6C22.3518 15.6133 22.3251 15.6267 22.2984 15.64C22.2718 15.64 22.2451 15.64 22.2184 15.64C22.1251 15.64 22.0318 15.6067 21.9384 15.54C21.8451 15.46 21.7984 15.3733 21.7984 15.28C21.7984 15.2533 21.7984 15.2267 21.7984 15.2C21.8118 15.1733 21.8251 15.1467 21.8384 15.12C21.9184 14.96 22.0318 14.7133 22.1784 14.38C22.3384 14.0467 22.5118 13.6867 22.6984 13.3C22.8851 12.9133 23.0518 12.5467 23.1984 12.2C23.3451 11.8533 23.4451 11.5867 23.4984 11.4C23.3118 11.2933 23.2184 11.1467 23.2184 10.96C23.2184 10.7467 23.3184 10.5467 23.5184 10.36C23.7318 10.1733 23.9318 10.08 24.1184 10.08C24.5051 10.08 24.9251 10.0867 25.3784 10.1C25.8451 10.1 26.3051 10.1 26.7584 10.1C26.9984 10.1 27.2318 10.1 27.4584 10.1C27.6851 10.1 27.9051 10.0933 28.1184 10.08C28.2784 10.04 28.4184 10.02 28.5384 10.02C28.7384 10.02 28.8851 10.0667 28.9784 10.16C29.0718 10.24 29.1184 10.3467 29.1184 10.48C29.1184 10.7067 28.9984 10.96 28.7584 11.24C28.5318 11.5067 28.2451 11.6733 27.8984 11.74C27.8184 11.7533 27.7318 11.7667 27.6384 11.78C27.5451 11.78 27.4451 11.78 27.3384 11.78C26.9518 11.78 26.5384 11.74 26.0984 11.66C25.6584 11.58 25.3384 11.5133 25.1384 11.46C24.9518 11.6867 24.7451 11.98 24.5184 12.34C24.3051 12.6867 24.0918 13.0533 23.8784 13.44C23.6651 13.8133 23.4718 14.16 23.2984 14.48C23.6984 14.3867 24.1184 14.3 24.5584 14.22C25.0118 14.1267 25.4318 14.08 25.8184 14.08C26.2851 14.08 26.6784 14.18 26.9984 14.38C27.3184 14.58 27.4784 14.96 27.4784 15.52C27.4784 16.2533 27.3251 16.9667 27.0184 17.66C26.7251 18.3533 26.3118 18.9733 25.7784 19.52C25.2584 20.0533 24.6651 20.48 23.9984 20.8C23.3451 21.12 22.6584 21.28 21.9384 21.28Z" fill="white"/>
<defs>
<filter id="filter0_i_40_26761" x="0" y="0" width="32" height="48" filterUnits="userSpaceOnUse" color-interpolation-filters="sRGB">
<feFlood flood-opacity="0" result="BackgroundImageFix"/>
<feBlend mode="normal" in="SourceGraphic" in2="BackgroundImageFix" result="shape"/>
<feColorMatrix in="SourceAlpha" type="matrix" values="0 0 0 0 0 0 0 0 0 0 0 0 0 0 0 0 0 0 127 0" result="hardAlpha"/>
<feMorphology radius="8" operator="dilate" in="SourceAlpha" result="effect1_innerShadow_40_26761"/>
<feOffset dy="16"/>
<feGaussianBlur stdDeviation="16"/>
<feComposite in2="hardAlpha" operator="arithmetic" k2="-1" k3="1"/>
<feColorMatrix type="matrix" values="0 0 0 0 0.0470588 0 0 0 0 0.0470588 0 0 0 0 0.0509804 0 0 0 0.4 0"/>
<feBlend mode="normal" in2="shape" result="effect1_innerShadow_40_26761"/>
</filter>
</defs>
</svg>
